<?xml version="1.0" standalone="no"?>
<!DOCTYPE svg PUBLIC "-//W3C//DTD SVG 20010904//EN"
 "http://www.w3.org/TR/2001/REC-SVG-20010904/DTD/svg10.dtd">
<svg version="1.0" xmlns="http://www.w3.org/2000/svg"
 width="832.000000pt" height="832.000000pt" viewBox="0 0 832.000000 832.000000"
 preserveAspectRatio="xMidYMid meet">
<metadata>
Created by potrace 1.14, written by Peter Selinger 2001-2017
</metadata>
<g transform="translate(0.000000,832.000000) scale(0.100000,-0.100000)"
fill="#000000" stroke="none">
<path d="M4048 7450 c-100 -10 -166 -42 -255 -124 -37 -34 -80 -66 -94 -69
-37 -9 -364 -44 -484 -52 -473 -30 -1018 -244 -1455 -573 -275 -207 -394 -344
-600 -692 -57 -96 -121 -204 -143 -240 -76 -122 -134 -245 -150 -315 -24 -106
-32 -543 -16 -770 14 -177 16 -323 10 -540 -3 -85 2 -141 22 -250 70 -377 63
-447 -73 -735 -105 -224 -118 -271 -166 -610 -34 -248 -27 -321 50 -522 37
-98 148 -316 200 -395 58 -88 184 -209 374 -358 264 -208 331 -245 474 -265
38 -6 78 -15 89 -20 60 -33 70 -161 40 -491 -12 -125 -21 -272 -21 -328 l0
-101 113 0 114 0 7 537 c4 333 3 553 -3 578 -12 49 -28 61 -100 75 -105 22
-189 52 -243 88 -29 19 -97 61 -152 94 -126 75 -189 129 -280 242 -130 161
-230 331 -309 526 -84 210 -83 327 7 516 50 105 138 255 161 274 48 40 218
-219 310 -475 26 -71 55 -144 66 -161 32 -53 108 -117 264 -222 83 -55 202
-144 265 -197 118 -98 222 -158 328 -189 58 -17 64 -11 26 25 -29 27 -29 49 1
158 20 75 16 131 -15 190 -30 59 -78 90 -188 121 -116 32 -148 48 -227 110
-121 96 -246 237 -318 360 -37 64 -98 158 -136 209 -112 152 -200 327 -188
373 3 11 3 17 0 14 -9 -9 -51 66 -69 121 -9 29 -18 124 -24 238 -13 264 -36
349 -151 560 -81 148 -86 175 -57 305 9 41 22 122 28 180 31 291 165 792 288
1079 150 348 190 391 731 794 205 152 323 224 394 242 24 7 27 3 46 -60 29
-91 27 -138 -8 -210 -37 -79 -64 -111 -247 -297 -85 -86 -154 -164 -154 -173
0 -9 -4 -14 -8 -11 -5 3 -15 -7 -23 -22 -8 -15 -17 -29 -20 -32 -10 -8 -79
-130 -74 -130 3 0 19 23 36 51 20 32 79 91 164 164 163 140 375 379 375 424 0
5 3 11 8 13 11 4 72 141 72 161 0 9 -11 46 -25 83 -39 104 -39 109 4 137 152
101 390 184 751 263 246 53 322 64 393 56 98 -11 313 -8 550 7 179 12 253 13
415 3 346 -21 507 -68 773 -227 52 -30 204 -112 339 -180 135 -69 253 -132
264 -140 17 -13 16 -17 -30 -66 -27 -28 -73 -67 -101 -86 -29 -18 -53 -36 -53
-39 0 -3 3 -4 8 -2 56 27 71 36 98 55 17 13 45 26 62 29 36 7 52 23 55 53 1
12 5 21 10 21 4 0 57 -22 118 -49 213 -95 314 -174 350 -271 15 -42 44 -85 99
-149 199 -229 273 -379 384 -774 48 -170 63 -242 76 -373 24 -249 53 -310 158
-333 29 -6 63 -11 76 -11 57 0 138 -101 179 -225 16 -47 78 -277 97 -355 8
-35 8 -35 9 -5 1 44 -31 244 -88 545 -68 359 -78 425 -96 639 -18 216 -32 263
-135 476 -71 148 -118 218 -286 431 -138 176 -244 280 -327 323 -63 32 -97 72
-97 110 0 7 -21 33 -47 59 -48 47 -88 70 -233 132 -41 18 -102 47 -135 65 -61
33 -84 43 -350 158 -252 110 -270 115 -486 152 -203 35 -310 63 -624 165 -156
51 -435 112 -565 125 -36 3 -78 7 -95 9 -16 2 -65 0 -107 -4z"/>
<path d="M5685 6640 c23 -115 59 -190 188 -390 137 -214 140 -218 203 -280 55
-54 59 -43 9 25 -12 17 -48 73 -80 125 -58 95 -76 126 -194 335 -35 61 -78
135 -98 165 -33 52 -34 53 -28 20z"/>
<path d="M5823 5981 c-63 -53 -124 -115 -88 -90 50 34 155 123 155 131 0 14
-7 9 -67 -41z"/>
<path d="M7420 3436 c-59 -26 -129 -125 -240 -343 -46 -90 -104 -189 -129
-220 -51 -64 -171 -163 -456 -378 -104 -79 -226 -171 -270 -204 -44 -33 -132
-89 -195 -123 -151 -81 -226 -134 -293 -209 -67 -74 -147 -225 -154 -294 l-6
-48 29 7 c16 4 65 14 110 21 125 20 167 47 349 224 179 175 308 269 462 337
48 21 124 57 169 79 l81 41 -29 -75 c-83 -217 -193 -393 -401 -644 -54 -65
-143 -180 -199 -255 -158 -213 -251 -292 -410 -351 -83 -31 -92 -42 -107 -141
-13 -86 -15 -195 -13 -557 l2 -303 109 0 110 0 0 225 c1 266 11 349 51 430 36
74 84 122 225 223 99 71 123 95 238 238 71 87 173 209 227 269 118 132 217
256 277 348 119 183 158 307 209 670 24 175 38 202 154 302 54 47 107 97 118
112 25 36 42 96 42 153 0 24 5 92 12 150 14 132 1 282 -28 310 -16 14 -23 16
-44 6z"/>
<path d="M1377 3215 c-4 -24 -3 -25 16 -12 28 19 33 37 9 37 -13 0 -21 -8 -25
-25z"/>
<path d="M4095 3067 c-18 -18 -39 -52 -45 -74 -12 -39 -10 -50 24 -157 43
-132 78 -193 137 -235 88 -65 203 -91 395 -92 l128 -1 75 39 c60 30 87 52 133
107 52 62 58 74 55 106 -2 21 -13 49 -25 65 -20 25 -27 27 -69 23 -27 -3 -72
-17 -101 -31 -73 -35 -147 -50 -224 -45 -93 6 -146 40 -219 144 -32 44 -83
104 -114 132 -70 64 -101 68 -150 19z"/>
<path d="M3369 2917 c-44 -16 -73 -64 -77 -131 -3 -55 0 -66 28 -108 96 -144
370 -220 525 -147 86 40 148 134 136 205 -9 53 -29 62 -88 41 -100 -36 -156
-22 -319 79 -39 24 -78 44 -87 44 -9 0 -18 4 -21 9 -8 13 -70 18 -97 8z"/>
</g>
</svg>
